<svg width="33" height="30" viewBox="0 0 33 30" fill="none" xmlns="http://www.w3.org/2000/svg">
<rect width="32.0018" height="30" rx="4" fill="#FAFAFA" fill-opacity="0.05"/>
<path fill-rule="evenodd" clip-rule="evenodd" d="M8 9C8 8.44772 8.44772 8 9 8H23.0018C23.5541 8 24.0018 8.44772 24.0018 9C24.0018 9.55228 23.5541 10 23.0018 10H9C8.44772 10 8 9.55228 8 9ZM8 15C8 14.4477 8.44772 14 9 14L23.0018 14C23.5541 14 24.0018 14.4477 24.0018 15C24.0018 15.5523 23.5541 16 23.0018 16L9 16C8.44772 16 8 15.5523 8 15ZM15.5333 20C14.981 20 14.5333 20.4477 14.5333 21C14.5333 21.5523 14.981 22 15.5333 22L23.0009 22C23.5532 22 24.0009 21.5523 24.0009 21C24.0009 20.4477 23.5532 20 23.0009 20L15.5333 20Z" fill="#FAFAFA"/>
</svg>
